<svg xmlns="http://www.w3.org/2000/svg" viewBox="0 0 64 64">
  <defs>
    <linearGradient id="g" x1="0" y1="0" x2="1" y2="1">
      <stop offset="0" stop-color="#f0aebd"/>
      <stop offset="1" stop-color="#a8506a"/>
    </linearGradient>
  </defs>
  <circle cx="32" cy="32" r="32" fill="url(#g)"/>
  <path d="M32 13c2 1.4 3.4 3.2 3.4 5 0 1.9-1.5 3.4-3.4 3.4s-3.4-1.5-3.4-3.4c0-1.8 1.4-3.6 3.4-5z" fill="#fff"/>
  <path d="M19 27h26c1.7 0 3 1.3 3 3v3c-2.4 0-3.1 1.9-5.5 1.9S39 33 36.6 33s-3.1 1.9-5.5 1.9S25.5 33 23 33s-3.2 1.9-5.6 1.9S15 33 15 33v-3c0-1.7 1.3-3 3-3z" fill="#fff" opacity=".95"/>
  <path d="M15 36c2.4 0 3.1 1.9 5.5 1.9S23.7 36 26.1 36s3.1 1.9 5.5 1.9S35 36 37.3 36s3.2 1.9 5.6 1.9S46 36 48 36v11.5c0 1.4-1.1 2.5-2.5 2.5h-27A2.5 2.5 0 0 1 16 47.5z" fill="#fff"/>
</svg>
